<svg width="100" height="100" viewBox="0 0 100 100" fill="none" xmlns="http://www.w3.org/2000/svg">
<path d="M85.8993 45.1458C78.9774 42.1991 72.6837 37.9547 67.3576 32.6417C59.9404 25.2097 54.6489 15.927 52.0326 5.75828C51.9178 5.30662 51.6559 4.90615 51.2878 4.62008C50.92 4.33402 50.4674 4.17871 50.0013 4.17871C49.5354 4.17871 49.0826 4.33402 48.7148 4.62008C48.347 4.90615 48.085 5.30662 47.9702 5.75828C45.3483 15.9257 40.0559 25.2073 32.6409 32.6417C27.3143 37.9541 21.0207 42.1984 14.0993 45.1458C11.3909 46.3125 8.6076 47.2499 5.7576 47.9708C5.30319 48.0823 4.89934 48.3432 4.61065 48.7115C4.32193 49.0797 4.16504 49.5341 4.16504 50.0021C4.16504 50.4699 4.32193 50.9243 4.61065 51.2925C4.89934 51.6608 5.30319 51.9217 5.7576 52.0332C8.6076 52.7499 11.3826 53.6875 14.0993 54.8541C21.0211 57.8008 27.315 62.0452 32.6409 67.3582C40.06 74.791 45.3533 84.0751 47.9702 94.2458C48.0817 94.7002 48.3426 95.1041 48.7109 95.3928C49.0791 95.6815 49.5335 95.8384 50.0013 95.8384C50.4693 95.8384 50.9237 95.6815 51.292 95.3928C51.6602 95.1041 51.9209 94.7002 52.0326 94.2458C52.7493 91.3917 53.6867 88.6167 54.8535 85.8999C57.8 78.978 62.0443 72.6841 67.3576 67.3582C74.7911 59.9408 84.075 54.6493 94.245 52.0332C94.6967 51.9184 95.0972 51.6565 95.3833 51.2886C95.6693 50.9208 95.8246 50.468 95.8246 50.0021C95.8246 49.536 95.6693 49.0834 95.3833 48.7154C95.0972 48.3475 94.6967 48.0856 94.245 47.9708C91.3924 47.253 88.6015 46.3084 85.8993 45.1458Z" fill="#3186FF"/>
<path d="M85.8993 45.1458C78.9774 42.1991 72.6837 37.9547 67.3576 32.6417C59.9404 25.2097 54.6489 15.927 52.0326 5.75828C51.9178 5.30662 51.6559 4.90615 51.2878 4.62008C50.92 4.33402 50.4674 4.17871 50.0013 4.17871C49.5354 4.17871 49.0826 4.33402 48.7148 4.62008C48.347 4.90615 48.085 5.30662 47.9702 5.75828C45.3483 15.9257 40.0559 25.2073 32.6409 32.6417C27.3143 37.9541 21.0207 42.1984 14.0993 45.1458C11.3909 46.3125 8.6076 47.2499 5.7576 47.9708C5.30319 48.0823 4.89934 48.3432 4.61065 48.7115C4.32193 49.0797 4.16504 49.5341 4.16504 50.0021C4.16504 50.4699 4.32193 50.9243 4.61065 51.2925C4.89934 51.6608 5.30319 51.9217 5.7576 52.0332C8.6076 52.7499 11.3826 53.6875 14.0993 54.8541C21.0211 57.8008 27.315 62.0452 32.6409 67.3582C40.06 74.791 45.3533 84.0751 47.9702 94.2458C48.0817 94.7002 48.3426 95.1041 48.7109 95.3928C49.0791 95.6815 49.5335 95.8384 50.0013 95.8384C50.4693 95.8384 50.9237 95.6815 51.292 95.3928C51.6602 95.1041 51.9209 94.7002 52.0326 94.2458C52.7493 91.3917 53.6867 88.6167 54.8535 85.8999C57.8 78.978 62.0443 72.6841 67.3576 67.3582C74.7911 59.9408 84.075 54.6493 94.245 52.0332C94.6967 51.9184 95.0972 51.6565 95.3833 51.2886C95.6693 50.9208 95.8246 50.468 95.8246 50.0021C95.8246 49.536 95.6693 49.0834 95.3833 48.7154C95.0972 48.3475 94.6967 48.0856 94.245 47.9708C91.3924 47.253 88.6015 46.3084 85.8993 45.1458Z" fill="url(#paint0_linear_4395_5423)"/>
<path d="M85.8993 45.1458C78.9774 42.1991 72.6837 37.9547 67.3576 32.6417C59.9404 25.2097 54.6489 15.927 52.0326 5.75828C51.9178 5.30662 51.6559 4.90615 51.2878 4.62008C50.92 4.33402 50.4674 4.17871 50.0013 4.17871C49.5354 4.17871 49.0826 4.33402 48.7148 4.62008C48.347 4.90615 48.085 5.30662 47.9702 5.75828C45.3483 15.9257 40.0559 25.2073 32.6409 32.6417C27.3143 37.9541 21.0207 42.1984 14.0993 45.1458C11.3909 46.3125 8.6076 47.2499 5.7576 47.9708C5.30319 48.0823 4.89934 48.3432 4.61065 48.7115C4.32193 49.0797 4.16504 49.5341 4.16504 50.0021C4.16504 50.4699 4.32193 50.9243 4.61065 51.2925C4.89934 51.6608 5.30319 51.9217 5.7576 52.0332C8.6076 52.7499 11.3826 53.6875 14.0993 54.8541C21.0211 57.8008 27.315 62.0452 32.6409 67.3582C40.06 74.791 45.3533 84.0751 47.9702 94.2458C48.0817 94.7002 48.3426 95.1041 48.7109 95.3928C49.0791 95.6815 49.5335 95.8384 50.0013 95.8384C50.4693 95.8384 50.9237 95.6815 51.292 95.3928C51.6602 95.1041 51.9209 94.7002 52.0326 94.2458C52.7493 91.3917 53.6867 88.6167 54.8535 85.8999C57.8 78.978 62.0443 72.6841 67.3576 67.3582C74.7911 59.9408 84.075 54.6493 94.245 52.0332C94.6967 51.9184 95.0972 51.6565 95.3833 51.2886C95.6693 50.9208 95.8246 50.468 95.8246 50.0021C95.8246 49.536 95.6693 49.0834 95.3833 48.7154C95.0972 48.3475 94.6967 48.0856 94.245 47.9708C91.3924 47.253 88.6015 46.3084 85.8993 45.1458Z" fill="url(#paint1_linear_4395_5423)"/>
<path d="M85.8993 45.1458C78.9774 42.1991 72.6837 37.9547 67.3576 32.6417C59.9404 25.2097 54.6489 15.927 52.0326 5.75828C51.9178 5.30662 51.6559 4.90615 51.2878 4.62008C50.92 4.33402 50.4674 4.17871 50.0013 4.17871C49.5354 4.17871 49.0826 4.33402 48.7148 4.62008C48.347 4.90615 48.085 5.30662 47.9702 5.75828C45.3483 15.9257 40.0559 25.2073 32.6409 32.6417C27.3143 37.9541 21.0207 42.1984 14.0993 45.1458C11.3909 46.3125 8.6076 47.2499 5.7576 47.9708C5.30319 48.0823 4.89934 48.3432 4.61065 48.7115C4.32193 49.0797 4.16504 49.5341 4.16504 50.0021C4.16504 50.4699 4.32193 50.9243 4.61065 51.2925C4.89934 51.6608 5.30319 51.9217 5.7576 52.0332C8.6076 52.7499 11.3826 53.6875 14.0993 54.8541C21.0211 57.8008 27.315 62.0452 32.6409 67.3582C40.06 74.791 45.3533 84.0751 47.9702 94.2458C48.0817 94.7002 48.3426 95.1041 48.7109 95.3928C49.0791 95.6815 49.5335 95.8384 50.0013 95.8384C50.4693 95.8384 50.9237 95.6815 51.292 95.3928C51.6602 95.1041 51.9209 94.7002 52.0326 94.2458C52.7493 91.3917 53.6867 88.6167 54.8535 85.8999C57.8 78.978 62.0443 72.6841 67.3576 67.3582C74.7911 59.9408 84.075 54.6493 94.245 52.0332C94.6967 51.9184 95.0972 51.6565 95.3833 51.2886C95.6693 50.9208 95.8246 50.468 95.8246 50.0021C95.8246 49.536 95.6693 49.0834 95.3833 48.7154C95.0972 48.3475 94.6967 48.0856 94.245 47.9708C91.3924 47.253 88.6015 46.3084 85.8993 45.1458Z" fill="url(#paint2_linear_4395_5423)"/>
<defs>
<linearGradient id="paint0_linear_4395_5423" x1="29.1659" y1="64.5832" x2="45.8326" y2="49.9999" gradientUnits="userSpaceOnUse">
<stop stop-color="#08B962"/>
<stop offset="1" stop-color="#08B962" stop-opacity="0"/>
</linearGradient>
<linearGradient id="paint1_linear_4395_5423" x1="33.3326" y1="22.9167" x2="47.9159" y2="45.8332" gradientUnits="userSpaceOnUse">
<stop stop-color="#F94543"/>
<stop offset="1" stop-color="#F94543" stop-opacity="0"/>
</linearGradient>
<linearGradient id="paint2_linear_4395_5423" x1="14.5826" y1="56.2499" x2="72.9159" y2="49.9999" gradientUnits="userSpaceOnUse">
<stop stop-color="#FABC12"/>
<stop offset="0.46" stop-color="#FABC12" stop-opacity="0"/>
</linearGradient>
</defs>
</svg>
