<svg width="100" height="100" viewBox="0 0 100 100" fill="none" xmlns="http://www.w3.org/2000/svg">
<path fill-rule="evenodd" clip-rule="evenodd" d="M82.2422 24.0668C82.9214 23.1959 83.5172 22.4001 84.1464 21.6292C84.4379 21.2667 84.4129 20.9917 84.1296 20.6125C81.4005 17.025 81.1422 13.0417 82.7129 9.00005C83.8922 5.95838 86.5005 4.53338 89.6879 4.2292C91.6755 4.0417 93.6255 4.24588 95.4338 5.21255C97.8088 6.48338 99.1922 8.42088 99.6422 11.0959C100.001 13.2292 99.9338 15.3126 99.3296 17.3792C98.2588 21.0376 95.6296 22.9333 92.0255 23.4124C89.0338 23.8124 86.0005 23.8624 82.9838 24.0668C82.7505 24.0833 82.5131 24.0668 82.2422 24.0668Z" fill="#027AFF"/>
<path fill-rule="evenodd" clip-rule="evenodd" d="M74.8417 7.68335H56.8167L42.5459 40.225H22.3709V7.82502H6.25V91.6668H22.375V56.3459H50.8083C53.2102 56.3457 55.562 55.6594 57.5867 54.3674C59.6115 53.0757 61.2252 51.2322 62.2376 49.0542V91.6668H78.3624V56.3459C78.3628 52.2724 76.8215 48.3498 74.048 45.3663C71.2748 42.3826 67.475 40.5594 63.4126 40.2624V40.2209H54.5583C56.6917 39.492 58.6522 38.3315 60.3174 36.8118C61.9828 35.292 63.3172 33.4457 64.2376 31.3874L74.8417 7.68335Z" fill="white"/>
</svg>
